<svg width="154" height="23" viewBox="0 0 154 23" fill="none" xmlns="http://www.w3.org/2000/svg">
<g clip-path="url(#clip0_912_2209)">
<path d="M5.01075 16.9512C4.785 16.2915 4.63093 15.5989 4.55732 14.8828L3.1319 16.3082C3.64695 16.6527 4.28862 16.8726 5.01075 16.9512Z" fill="white"/>
<path d="M11.114 11.0992C12.9639 9.24925 14.4685 7.28791 15.3508 5.5765C15.7482 4.80554 16.0643 3.94705 16.1073 3.33594L6.79956 12.6437H9.44812C10.0161 12.1554 10.5811 11.6321 11.114 11.0992Z" fill="white"/>
<path d="M4.4592 4.44255C6.43886 2.46294 8.78694 1.07557 11.0711 0.535995C11.5191 0.430149 11.9553 0.358996 12.3771 0.32189C11.6304 0.110026 10.8499 0 10.0523 0C7.79084 0 5.66475 0.880683 4.0656 2.47979L2.48925 4.05618C0.890143 5.65529 0.00946045 7.78143 0.00946045 10.043C0.00946045 10.847 0.12134 11.6337 0.336651 12.3858C0.373068 11.9562 0.444695 11.5115 0.552696 11.0544C1.09222 8.77029 2.4796 6.4222 4.4592 4.44255Z" fill="white"/>
<path d="M15.465 12.6395H17.4207C18.5245 10.6986 18.7917 8.4345 18.2511 6.34375C18.2115 6.72304 18.1452 7.11329 18.0507 7.51335C17.6409 9.24843 16.7413 11.0202 15.465 12.6395Z" fill="white"/>
<path d="M13.0122 3.23604C11.3008 4.11823 9.33945 5.62287 7.48956 7.4728C5.65924 9.30312 4.16343 11.2474 3.27775 12.9474C2.78503 13.8931 2.56303 14.6069 2.50757 15.1069L15.1222 2.49219C14.523 2.56666 13.7297 2.86622 13.0122 3.23604Z" fill="white"/>
<path d="M6.57535 6.55887C8.51725 4.61697 10.5929 3.0289 12.4198 2.08711C12.8035 1.88933 13.1574 1.72966 13.4843 1.60257C12.8396 1.55253 12.1285 1.61507 11.3684 1.79465C9.31479 2.27975 7.18577 3.54494 5.37355 5.35712C3.56137 7.1693 2.29622 9.29832 1.81108 11.352C1.63103 12.1142 1.56866 12.8271 1.61948 13.4733C2.43336 11.3658 4.35453 8.77969 6.57535 6.55887Z" fill="white"/>
<path d="M16.5 6.16605C15.5582 7.99306 13.9701 10.0687 12.0282 12.0105C11.8161 12.2226 11.5987 12.433 11.3784 12.6408H13.773C15.2945 10.961 16.3574 9.0591 16.7925 7.21749C16.972 6.45739 17.0346 5.74633 16.9845 5.10156C16.8574 5.42837 16.6978 5.78232 16.5 6.16605Z" fill="white"/>
<path d="M13.9189 19.3353C16.9246 19.3353 19.3707 16.8943 19.3795 13.8906H8.45831C8.46706 16.8943 10.9132 19.3353 13.9189 19.3353ZM13.9585 17.4769C13.5989 17.4769 13.3075 17.1854 13.3075 16.8258C13.3075 16.4662 13.9585 15.6041 13.9585 15.6041C13.9585 15.6041 14.6096 16.4662 14.6096 16.8258C14.6096 17.1854 14.3181 17.4769 13.9585 17.4769ZM16.7788 16.2114C16.5245 16.4657 16.1123 16.4657 15.858 16.2114C15.6038 15.9571 15.4545 14.8871 15.4545 14.8871C15.4545 14.8871 16.5245 15.0364 16.7788 15.2906C17.033 15.5449 17.033 15.9572 16.7788 16.2114ZM11.0338 15.2906C11.2881 15.0364 12.3581 14.8871 12.3581 14.8871C12.3581 14.8871 12.2089 15.9572 11.9546 16.2114C11.7003 16.4657 11.2881 16.4657 11.0338 16.2114C10.7795 15.9572 10.7795 15.5449 11.0338 15.2906Z" fill="white"/>
<path d="M13.9189 20.6282C10.2003 20.6282 7.17418 17.6072 7.16543 13.8906H5.75685L5.75659 13.9149C5.75659 18.4087 9.41258 22.0647 13.9063 22.0647C18.4001 22.0647 22.0561 18.4087 22.0561 13.9149V13.8906H20.6724C20.6636 17.6072 17.6375 20.6282 13.9189 20.6282Z" fill="white"/>
</g>
<path d="M38.8516 15.921H32.573L31.7907 18.3883H29.4637L34.0975 3.94543H37.3672L42.001 18.3883H39.654L38.8516 15.921ZM38.1696 13.7947L35.7023 6.17204L33.255 13.7947H38.1696Z" fill="white"/>
<path d="M56.2634 10.8058V11.2872C56.1965 13.3734 55.6482 15.0584 54.6185 16.3423C54.0033 17.1179 53.2411 17.7063 52.3317 18.1075C51.4223 18.4953 50.4394 18.6892 49.3829 18.6892C48.3131 18.6892 47.3168 18.4953 46.394 18.1075C45.4847 17.7063 44.7425 17.1179 44.1674 16.3423C43.0976 15.0451 42.5426 13.3199 42.5025 11.1669C42.5426 9.04056 43.0976 7.31544 44.1674 5.99151C44.7425 5.22924 45.4914 4.64751 46.4141 4.24632C47.3369 3.84513 48.3265 3.64453 49.3829 3.64453C50.4394 3.64453 51.4223 3.84513 52.3317 4.24632C53.2411 4.64751 54.0033 5.22924 54.6185 5.99151C54.8726 6.32583 55.0932 6.67353 55.2805 7.03461L53.1943 7.97741C53.0605 7.75006 52.9335 7.54278 52.8131 7.35556C52.4387 6.86075 51.9506 6.47962 51.3488 6.21216C50.7604 5.93133 50.1318 5.79091 49.4632 5.79091C48.741 5.79091 48.0724 5.92464 47.4572 6.1921C46.842 6.44619 46.3339 6.83401 45.9327 7.35556C45.264 8.25155 44.9163 9.522 44.8896 11.1669C44.9163 12.8118 45.264 14.0822 45.9327 14.9782C46.3205 15.473 46.8086 15.8608 47.397 16.1417C47.9988 16.4091 48.634 16.5429 49.3027 16.5429C50.0248 16.5429 50.6935 16.4158 51.3087 16.1617C51.9238 15.8943 52.4253 15.4998 52.8131 14.9782C53.2812 14.3497 53.5888 13.5673 53.7359 12.6312H50.2455V10.8058H56.2634Z" fill="white"/>
<path d="M68.7593 11.4477C68.3313 12.0228 67.7563 12.4774 67.0341 12.8118L69.7622 18.3883H67.1946L64.7072 13.2531H60.936V18.3883H58.6693V3.94543H65.0482C65.5831 3.94543 66.0779 4.02566 66.5326 4.18614C67.4286 4.48035 68.1508 4.98852 68.6991 5.71067C69.0468 6.12524 69.3075 6.59329 69.4814 7.11484C69.6686 7.62302 69.7622 8.14457 69.7622 8.67949C69.7622 9.16092 69.6686 9.64904 69.4814 10.1438C69.3075 10.6253 69.0668 11.0599 68.7593 11.4477ZM60.936 11.1268H65.0282C65.3625 11.1268 65.7035 11.0398 66.0512 10.866C66.3989 10.6921 66.6864 10.4581 66.9138 10.1639C67.2748 9.69585 67.4554 9.20104 67.4554 8.67949C67.4554 7.95735 67.2347 7.36893 66.7934 6.91425C66.5794 6.67353 66.312 6.47294 65.991 6.31246C65.6701 6.15198 65.3491 6.07174 65.0282 6.07174H60.936V11.1268Z" fill="white"/>
<path d="M77.667 18.6892C76.6105 18.6892 75.6209 18.4886 74.6981 18.0874C73.7888 17.6863 73.0332 17.1045 72.4314 16.3423C71.8697 15.6469 71.4552 14.8578 71.1877 13.9752C70.9203 13.0926 70.7865 12.1565 70.7865 11.1669C70.7865 9.06731 71.3348 7.3355 72.4314 5.97144C73.0332 5.20918 73.7888 4.63414 74.6981 4.24632C75.6209 3.84513 76.6105 3.64453 77.667 3.64453C78.7234 3.6579 79.7064 3.86519 80.6157 4.26638C81.5251 4.6542 82.2807 5.22255 82.8825 5.97144C83.4575 6.68022 83.8654 7.46254 84.1061 8.31842C84.3602 9.1743 84.5006 10.1238 84.5274 11.1669C84.5006 13.2932 83.9523 15.0183 82.8825 16.3423C82.2673 17.1179 81.505 17.7063 80.5957 18.1075C79.6863 18.4953 78.7101 18.6892 77.667 18.6892ZM77.5867 16.5429C78.3089 16.5429 78.9775 16.4158 79.5927 16.1617C80.2079 15.8943 80.7027 15.4998 81.0771 14.9782C81.7859 14.0555 82.1403 12.785 82.1403 11.1669C82.1403 9.53537 81.7859 8.26493 81.0771 7.35556C80.716 6.86075 80.2346 6.47962 79.6328 6.21216C79.0444 5.93133 78.4159 5.79091 77.7472 5.79091C77.0251 5.79091 76.3497 5.92464 75.7212 6.1921C75.106 6.45956 74.6112 6.84738 74.2368 7.35556C73.5547 8.21143 73.2004 9.48188 73.1736 11.1669C73.1736 12.8118 73.528 14.0822 74.2368 14.9782C74.5978 15.473 75.0793 15.8608 75.6811 16.1417C76.2829 16.4091 76.9181 16.5429 77.5867 16.5429Z" fill="white"/>
<path d="M95.0988 8.21812C94.8982 7.76344 94.6842 7.38899 94.4569 7.09478C94.2295 6.80058 93.942 6.54649 93.5943 6.33252C92.9925 5.95807 92.3573 5.77085 91.6886 5.77085C90.913 5.77085 90.2778 5.91795 89.783 6.21216C89.5021 6.37264 89.2815 6.58661 89.121 6.85407C88.9605 7.10816 88.8803 7.3823 88.8803 7.67651C88.8803 8.02421 89.0073 8.33848 89.2614 8.61931C89.5289 8.91352 90.124 9.19435 91.0467 9.46182L93.5943 10.204C94.1827 10.3779 94.6842 10.5718 95.0988 10.7857C95.5133 10.9997 95.8878 11.2605 96.2221 11.5681C96.6367 11.9559 96.9509 12.4039 97.1649 12.9121C97.3922 13.4069 97.5059 13.9351 97.5059 14.4968C97.5059 15.1253 97.3388 15.7338 97.0044 16.3222C96.6835 16.9106 96.2555 17.3854 95.7206 17.7464C95.2258 18.0941 94.6574 18.3348 94.0155 18.4686C93.387 18.6157 92.6716 18.6892 91.8692 18.6892C89.7963 18.6892 88.2317 18.034 87.1752 16.7234C86.6136 16.0146 86.199 15.0986 85.9315 13.9752L88.2183 13.3534C88.3788 14.1825 88.6396 14.8177 89.0006 15.259C89.3082 15.7004 89.7228 16.028 90.2443 16.242C90.7793 16.4559 91.3476 16.5629 91.9494 16.5629C92.3907 16.5629 92.8387 16.5094 93.2934 16.4024C93.7481 16.2821 94.1158 16.1149 94.3967 15.9009C94.8781 15.5399 95.1188 15.0518 95.1188 14.4366C95.1188 13.9418 94.9383 13.5339 94.5772 13.213C94.2161 12.8786 93.7147 12.6179 93.0727 12.4306L90.4048 11.6483C89.1879 11.3006 88.2785 10.8593 87.6767 10.3244C87.2889 9.99005 86.9947 9.58217 86.7941 9.10074C86.6069 8.61931 86.5133 8.12451 86.5133 7.61633C86.5133 6.89419 86.7205 6.22553 87.1351 5.61037C87.563 4.98184 88.098 4.52047 88.7399 4.22626C89.5423 3.83844 90.5319 3.64453 91.7087 3.64453C92.8989 3.67128 93.9019 3.91199 94.7176 4.36668C95.3194 4.701 95.8477 5.14232 96.3023 5.69061C96.757 6.23891 97.1181 6.87413 97.3856 7.59627L95.0988 8.21812Z" fill="white"/>
<path d="M110.034 6.1921H105.3V18.3883H103.034V6.1921H98.2995V3.94543H110.034V6.1921Z" fill="white"/>
<path d="M117.912 18.6892C116.855 18.6892 115.865 18.4886 114.943 18.0874C114.033 17.6863 113.278 17.1045 112.676 16.3423C112.114 15.6469 111.7 14.8578 111.432 13.9752C111.165 13.0926 111.031 12.1565 111.031 11.1669C111.031 9.06731 111.579 7.3355 112.676 5.97144C113.278 5.20918 114.033 4.63414 114.943 4.24632C115.865 3.84513 116.855 3.64453 117.912 3.64453C118.968 3.6579 119.951 3.86519 120.86 4.26638C121.77 4.6542 122.525 5.22255 123.127 5.97144C123.702 6.68022 124.11 7.46254 124.351 8.31842C124.605 9.1743 124.745 10.1238 124.772 11.1669C124.745 13.2932 124.197 15.0183 123.127 16.3423C122.512 17.1179 121.75 17.7063 120.84 18.1075C119.931 18.4953 118.955 18.6892 117.912 18.6892ZM117.831 16.5429C118.553 16.5429 119.222 16.4158 119.837 16.1617C120.452 15.8943 120.947 15.4998 121.322 14.9782C122.03 14.0555 122.385 12.785 122.385 11.1669C122.385 9.53537 122.03 8.26493 121.322 7.35556C120.961 6.86075 120.479 6.47962 119.877 6.21216C119.289 5.93133 118.66 5.79091 117.992 5.79091C117.27 5.79091 116.594 5.92464 115.966 6.1921C115.351 6.45956 114.856 6.84738 114.481 7.35556C113.799 8.21143 113.445 9.48188 113.418 11.1669C113.418 12.8118 113.773 14.0822 114.481 14.9782C114.842 15.473 115.324 15.8608 115.926 16.1417C116.527 16.4091 117.163 16.5429 117.831 16.5429Z" fill="white"/>
<path d="M139.656 14.1357C139.402 14.9381 139.014 15.6736 138.493 16.3423C137.864 17.1179 137.089 17.7063 136.166 18.1075C135.256 18.4953 134.287 18.6892 133.257 18.6892C132.201 18.6892 131.218 18.4886 130.308 18.0874C129.399 17.6729 128.643 17.0912 128.042 16.3423C126.932 14.9782 126.377 13.2531 126.377 11.1669C126.403 9.02719 126.958 7.29538 128.042 5.97144C128.643 5.20918 129.399 4.63414 130.308 4.24632C131.218 3.84513 132.201 3.64453 133.257 3.64453C134.314 3.64453 135.297 3.84513 136.206 4.24632C137.115 4.63414 137.878 5.20918 138.493 5.97144C139.054 6.68022 139.489 7.54947 139.797 8.57919L137.47 8.98039C137.296 8.3251 137.042 7.7835 136.707 7.35556C136.32 6.84738 135.818 6.45956 135.203 6.1921C134.588 5.91127 133.939 5.77085 133.257 5.77085C132.562 5.77085 131.913 5.91127 131.311 6.1921C130.71 6.45956 130.221 6.84738 129.847 7.35556C129.138 8.23818 128.784 9.50862 128.784 11.1669C128.784 12.8118 129.138 14.0822 129.847 14.9782C130.208 15.473 130.683 15.8608 131.271 16.1417C131.873 16.4091 132.508 16.5429 133.177 16.5429C133.899 16.5429 134.568 16.4158 135.183 16.1617C135.798 15.8943 136.306 15.4998 136.707 14.9782C137.028 14.5369 137.269 14.0421 137.43 13.4938L139.656 14.1357Z" fill="white"/>
<path d="M144.492 11.7687V18.3883H142.205V3.94543H144.492V9.98337H147.12L150.891 3.94543H153.599L149.105 10.866L154 18.3883H151.272L147.12 11.7687H144.492Z" fill="white"/>
<defs>
<clipPath id="clip0_912_2209">
<rect width="22.0656" height="22.0656" fill="white"/>
</clipPath>
</defs>
</svg>
