<svg width="70" height="70" viewBox="0 0 70 70" fill="none" xmlns="http://www.w3.org/2000/svg">
<path fill-rule="evenodd" clip-rule="evenodd" d="M8.2335 44.093C8.2335 41.8838 10.0244 40.093 12.2335 40.093H16.8177C19.0268 40.093 20.8177 41.8838 20.8177 44.093V54.4409C20.8177 56.6501 19.0268 58.4409 16.8177 58.4409H12.2335C10.0244 58.4409 8.2335 56.65 8.2335 54.4409V44.093ZM70 66.511C70 68.4379 68.4379 70 66.511 70H3.48904C1.56209 70 0 68.4379 0 66.511C0 64.584 1.56209 63.0219 3.48904 63.0219H66.511C68.4379 63.0219 70 64.584 70 66.511ZM47.4325 20.9953C47.0476 19.7909 47.9912 18.6432 49.2491 18.5157C50.4284 18.3962 51.4343 19.2443 51.9694 20.3019C52.7386 21.8218 54.0847 22.6248 56.1805 22.6248C57.6171 22.6248 58.7052 22.3136 59.4361 21.6937C60.4571 20.8272 60.992 19.2967 60.0721 18.1517C59.2235 17.118 56.1195 16.5079 54.8842 16.1923C51.3385 15.2913 47.7989 13.7086 47.7989 9.39546C47.7989 5.73401 50.6808 3.64908 54.0296 3.1999V1.96843C54.0296 0.881294 54.9109 0 55.998 0C57.0851 0 57.9664 0.881294 57.9664 1.96843V3.2167C60.9019 3.62184 63.0907 5.09504 63.9678 7.63373C64.4001 8.88506 63.31 10.023 61.9869 10.0685C60.783 10.1099 59.8582 9.16297 59.1602 8.18127C58.4848 7.23142 57.3956 6.8649 55.8329 6.8649C54.4608 6.8649 52.086 7.28135 52.086 9.09042C52.086 11.0418 55.4775 11.6449 56.8679 11.9791C59.5345 12.6192 62.6185 13.3779 64.1492 15.9005C65.4464 18.0376 65.2852 21.0377 63.9732 23.1279C62.6185 25.2862 60.37 26.1209 57.9664 26.3773V27.2056C57.9664 28.2927 57.0851 29.174 55.998 29.174C54.9109 29.174 54.0296 28.2927 54.0296 27.2056V26.3305C50.5533 25.8357 48.3916 23.9967 47.4325 20.9953ZM49.1832 36.4898C49.1832 34.2806 50.9741 32.4898 53.1832 32.4898H57.7674C59.9765 32.4898 61.7674 34.2806 61.7674 36.4898V54.4409C61.7674 56.6501 59.9765 58.4409 57.7674 58.4409H53.1832C50.9741 58.4409 49.1832 56.65 49.1832 54.4409V36.4898ZM28.7079 25.4409C28.7079 23.2317 30.4988 21.4409 32.7079 21.4409H37.2929C39.5021 21.4409 41.293 23.2317 41.293 25.4409V54.4409C41.293 56.65 39.5021 58.4409 37.293 58.4409H32.7079C30.4988 58.4409 28.7079 56.65 28.7079 54.4409V25.4409Z" fill="#1AAD73"/>
</svg>
