<svg width="70" height="42" viewBox="0 0 70 42" fill="none" xmlns="http://www.w3.org/2000/svg">
<path d="M33.25 30.2453C33.082 29.7292 32.648 29.3565 32.116 29.2705L27.1741 28.5395L24.9761 23.9668C24.7381 23.4651 24.2481 23.1641 23.7161 23.1641C23.1841 23.1641 22.6941 23.4651 22.4561 23.9525L20.2581 28.5395L15.3161 29.2705C14.7842 29.3565 14.3502 29.7292 14.1822 30.2453C14.0142 30.7757 14.1542 31.3347 14.5322 31.7217L18.1161 35.291L17.2621 40.3224C17.1781 40.8671 17.3881 41.3975 17.8221 41.7272C18.2561 42.0425 18.8301 42.0855 19.3061 41.8275L23.7161 39.4623L28.1261 41.8275C28.3361 41.9422 28.5601 41.9995 28.7841 41.9995C29.0781 41.9995 29.3581 41.9135 29.6101 41.7272C30.0441 41.3975 30.2541 40.8671 30.1701 40.3224L29.3161 35.291L32.9 31.7217C33.278 31.3347 33.418 30.7757 33.25 30.2453Z" fill="#1AAD73"/>
<path d="M69.9298 16.4977C69.7618 15.9817 69.3278 15.609 68.7958 15.523L58.0439 13.9319L53.2279 3.94074C52.9899 3.45337 52.4999 3.15234 51.9679 3.15234C51.4359 3.15234 50.9599 3.45337 50.7219 3.94074L45.906 13.9319L35.154 15.523C34.622 15.609 34.188 15.9817 34.02 16.4977C33.852 17.0281 33.992 17.5871 34.37 17.9742L42.154 25.7434L40.32 36.7093C40.236 37.254 40.446 37.7987 40.88 38.1141C41.314 38.4438 41.874 38.4724 42.35 38.2288L51.9679 33.0397L61.5999 38.2288C61.7959 38.3291 62.0199 38.3864 62.2439 38.3864C62.5379 38.3864 62.8319 38.3004 63.0699 38.1141C63.5039 37.7987 63.7139 37.254 63.6299 36.7093L61.7819 25.7434L69.5798 17.9742C69.9578 17.5871 70.0978 17.0281 69.9298 16.4977Z" fill="#1AAD73"/>
<path d="M4.84419 14.1911L3.80819 20.4266C3.71019 20.9713 3.93419 21.516 4.35419 21.8314C4.78819 22.1467 5.36218 22.1897 5.83818 21.9317L11.3121 18.9932L16.7861 21.9317C16.9821 22.0464 17.2061 22.1037 17.4301 22.1037C17.7241 22.1037 18.0181 22.0177 18.2561 21.8314C18.6901 21.516 18.9001 20.9713 18.8161 20.4266L17.7661 14.1911L22.1901 9.76176C22.5821 9.38907 22.7081 8.81569 22.5541 8.29965C22.3861 7.78361 21.9521 7.39658 21.4201 7.3249L15.3021 6.4075L12.5581 0.731057C12.0961 -0.243686 10.5282 -0.243686 10.0522 0.731057L7.32217 6.4075L1.19021 7.3249C0.672213 7.39658 0.224216 7.78361 0.0702172 8.29965C-0.0977817 8.81569 0.0422174 9.38907 0.420215 9.76176L4.84419 14.1911Z" fill="#1AAD73"/>
</svg>
