<svg width="24" height="24" viewBox="0 0 24 24" fill="none" xmlns="http://www.w3.org/2000/svg">
<path d="M12 20.9411C13.5 20.9411 14.75 22.0011 16 22.0011C19 22.0011 22 14.0011 22 9.78105C21.9659 8.48577 21.4212 7.25648 20.4846 6.3611C19.548 5.46572 18.2955 4.97685 17 5.00105C14.78 5.00105 13 6.44105 12 7.00105C11 6.44105 9.22 5.00105 7 5.00105C5.70375 4.97421 4.4497 5.4622 3.51253 6.35813C2.57536 7.25407 2.03147 8.48491 2 9.78105C2 14.0011 5 22.0011 8 22.0011C9.25 22.0011 10.5 20.9411 12 20.9411Z" stroke="white" stroke-width="2" stroke-linecap="round" stroke-linejoin="round"/>
<path d="M10 2C11 2.5 12 4 12 7" stroke="white" stroke-width="2" stroke-linecap="round" stroke-linejoin="round"/>
</svg>
