<svg width="24" height="24" viewBox="0 0 24 24" fill="none" xmlns="http://www.w3.org/2000/svg">
<path d="M8.64002 13.9981L6.59002 11.9581M15.34 14.9981L12.88 12.5381M2.27002 21.6981C2.27002 21.6981 12.14 18.1981 15 15.3381C15.4183 14.9205 15.7502 14.4246 15.9768 13.8787C16.2034 13.3328 16.3203 12.7477 16.3208 12.1566C16.3212 11.5656 16.2053 10.9802 15.9795 10.434C15.7538 9.88776 15.4226 9.39134 15.005 8.97308C14.5874 8.55482 14.0915 8.22291 13.5456 7.9963C12.9998 7.76968 12.4146 7.65281 11.8236 7.65235C11.2325 7.65188 10.6472 7.76784 10.1009 7.99359C9.5547 8.21934 9.05828 8.55048 8.64002 8.96808C5.77002 11.8381 2.27002 21.6981 2.27002 21.6981Z" stroke="black" stroke-width="2" stroke-linecap="round" stroke-linejoin="round"/>
<path d="M22 9C22 9 20.67 7 18.5 7C16.86 7 15 9 15 9C15 9 16.33 11 18.5 11C20.67 11 22 9 22 9Z" stroke="black" stroke-width="2" stroke-linecap="round" stroke-linejoin="round"/>
<path d="M15 2C15 2 13 3.33 13 5.5C13 7.67 15 9 15 9C15 9 17 7.16 17 5.5C17 3.33 15 2 15 2Z" stroke="black" stroke-width="2" stroke-linecap="round" stroke-linejoin="round"/>
</svg>
