<svg width="24" height="24" viewBox="0 0 24 24" fill="none" xmlns="http://www.w3.org/2000/svg">
<path d="M12 16.875C14.6924 16.875 16.875 14.6924 16.875 12C16.875 9.30761 14.6924 7.125 12 7.125C9.30761 7.125 7.125 9.30761 7.125 12C7.125 14.6924 9.30761 16.875 12 16.875Z" stroke="black" stroke-width="2" stroke-linecap="round" stroke-linejoin="round"/>
<path d="M10.875 16.875C10.875 18.375 10.125 20.625 8.625 21.375C7.5 21.375 6.375 19.875 5.625 18.375C4.125 17.625 2.625 16.125 2.625 15.375C3.375 13.875 5.625 13.125 7.125 13.125M13.125 7.125C13.125 5.625 13.875 3.375 15.375 2.625C16.5 2.625 17.625 4.125 18.375 5.625C19.875 6.375 21.375 7.875 21.375 8.625C20.625 10.125 18.375 10.875 16.875 10.875" stroke="black" stroke-width="2" stroke-linecap="round" stroke-linejoin="round"/>
</svg>
