<svg width="16" height="16" viewBox="0 0 16 16" fill="none" xmlns="http://www.w3.org/2000/svg">
<g clip-path="url(#clip0_912_2280)">
<path fill-rule="evenodd" clip-rule="evenodd" d="M8 1.93438C4.64948 1.93438 1.93334 4.65051 1.93334 8.00104C1.93334 11.3516 4.64948 14.0677 8 14.0677C11.3505 14.0677 14.0667 11.3516 14.0667 8.00104C14.0667 4.65051 11.3505 1.93438 8 1.93438ZM0.733337 8.00104C0.733337 3.98777 3.98673 0.734375 8 0.734375C12.0133 0.734375 15.2667 3.98777 15.2667 8.00104C15.2667 12.0143 12.0133 15.2677 8 15.2677C3.98673 15.2677 0.733337 12.0143 0.733337 8.00104Z" fill="#1E1E1E" fill-opacity="0.4"/>
<path fill-rule="evenodd" clip-rule="evenodd" d="M8.00002 3.39844C8.3314 3.39844 8.60002 3.66707 8.60002 3.99844V7.62762L10.935 8.79511C11.2314 8.94331 11.3515 9.30371 11.2033 9.6001C11.0552 9.89649 10.6948 10.0166 10.3984 9.86843L7.7317 8.53509C7.52843 8.43346 7.40002 8.2257 7.40002 7.99844V3.99844C7.40002 3.66707 7.66865 3.39844 8.00002 3.39844Z" fill="#1E1E1E" fill-opacity="0.4"/>
</g>
<defs>
<clipPath id="clip0_912_2280">
<rect width="16" height="16" fill="white"/>
</clipPath>
</defs>
</svg>
