<svg width="16" height="16" viewBox="0 0 16 16" fill="none" xmlns="http://www.w3.org/2000/svg">
<path fill-rule="evenodd" clip-rule="evenodd" d="M8.00003 1.26641C6.56786 1.26641 5.19434 1.83533 4.18165 2.84803C3.16895 3.86073 2.60002 5.23424 2.60002 6.66641C2.60002 8.75857 3.95947 10.779 5.4356 12.3371C6.16139 13.1032 6.88923 13.7302 7.43628 14.1658C7.65924 14.3433 7.85136 14.4884 8.00002 14.5976C8.14869 14.4884 8.34081 14.3433 8.56377 14.1658C9.11082 13.7302 9.83866 13.1032 10.5645 12.3371C12.0406 10.779 13.4 8.75857 13.4 6.66641C13.4 5.23424 12.8311 3.86073 11.8184 2.84803C10.8057 1.83533 9.43219 1.26641 8.00003 1.26641ZM8.00003 15.3331C7.6672 15.8323 7.66705 15.8322 7.66687 15.8321L7.6664 15.8318L7.66506 15.8309L7.66073 15.828L7.64569 15.8178C7.63288 15.8091 7.61453 15.7965 7.59102 15.7803C7.54401 15.7477 7.47633 15.7002 7.39092 15.6385C7.22016 15.5152 6.97822 15.335 6.68877 15.1045C6.11082 14.6443 5.33866 13.9796 4.56445 13.1624C3.04058 11.5539 1.40002 9.2409 1.40002 6.66641C1.40002 4.91598 2.09538 3.23724 3.33312 1.9995C4.57086 0.761761 6.2496 0.0664062 8.00003 0.0664062C9.75045 0.0664062 11.4292 0.761761 12.6669 1.9995C13.9047 3.23724 14.6 4.91598 14.6 6.66641C14.6 9.2409 12.9595 11.5539 11.4356 13.1624C10.6614 13.9796 9.88923 14.6443 9.31128 15.1045C9.02183 15.335 8.77988 15.5152 8.60913 15.6385C8.52373 15.7002 8.45604 15.7477 8.40903 15.7803C8.38552 15.7965 8.36717 15.8091 8.35436 15.8178L8.33932 15.828L8.33499 15.8309L8.33365 15.8318L8.33318 15.8321C8.333 15.8322 8.33285 15.8323 8.00003 15.3331ZM8.00003 15.3331L8.33285 15.8323C8.13131 15.9667 7.86874 15.9667 7.6672 15.8323L8.00003 15.3331Z" fill="#1E1E1E" fill-opacity="0.4"/>
<path fill-rule="evenodd" clip-rule="evenodd" d="M8.00002 5.26641C7.22683 5.26641 6.60002 5.89321 6.60002 6.66641C6.60002 7.43961 7.22683 8.06641 8.00002 8.06641C8.77322 8.06641 9.40003 7.43961 9.40003 6.66641C9.40003 5.89321 8.77322 5.26641 8.00002 5.26641ZM5.40002 6.66641C5.40002 5.23047 6.56408 4.06641 8.00002 4.06641C9.43597 4.06641 10.6 5.23047 10.6 6.66641C10.6 8.10235 9.43597 9.26641 8.00002 9.26641C6.56408 9.26641 5.40002 8.10235 5.40002 6.66641Z" fill="#1E1E1E" fill-opacity="0.4"/>
</svg>
