<svg width="218" height="37" viewBox="0 0 218 37" fill="none" xmlns="http://www.w3.org/2000/svg">
<g clip-path="url(#clip0_912_2062)">
<path d="M8.22807 28.1558C7.85738 27.0795 7.60438 25.9496 7.48351 24.7812L5.14282 27.1068C5.98858 27.6688 7.04226 28.0276 8.22807 28.1558Z" fill="#1AAD73"/>
<path d="M18.2501 18.6032C21.2879 15.5851 23.7586 12.3852 25.2073 9.59298C25.8599 8.33516 26.379 6.93453 26.4496 5.9375L11.1654 21.1231H15.5146C16.4473 20.3264 17.375 19.4727 18.2501 18.6032Z" fill="#1AAD73"/>
<path d="M7.32235 7.74802C10.5731 4.51829 14.4289 2.25479 18.1797 1.37448C18.9155 1.20179 19.6317 1.0857 20.3243 1.02516C19.0982 0.679508 17.8165 0.5 16.5068 0.5C12.7932 0.5 9.30197 1.93684 6.67601 4.54578L4.08749 7.11767C1.46161 9.72662 0.0154419 13.1954 0.0154419 16.8851C0.0154419 18.1969 0.199158 19.4804 0.552721 20.7075C0.612521 20.0065 0.730139 19.2811 0.907486 18.5353C1.79344 14.8087 4.07164 10.9778 7.32235 7.74802Z" fill="#1AAD73"/>
<path d="M25.395 21.1231H28.6064C30.4189 17.9566 30.8577 14.2626 29.97 10.8516C29.9049 11.4704 29.7961 12.1071 29.641 12.7598C28.9679 15.5906 27.4908 18.4812 25.395 21.1231Z" fill="#1AAD73"/>
<path d="M21.3672 5.78C18.5569 7.2193 15.3362 9.67412 12.2985 12.6923C9.2929 15.6785 6.83664 18.8505 5.38227 21.6241C4.57317 23.1671 4.20863 24.3316 4.11755 25.1473L24.832 4.56641C23.848 4.68791 22.5453 5.17665 21.3672 5.78Z" fill="#1AAD73"/>
<path d="M10.7973 11.1993C13.986 8.03108 17.3944 5.44013 20.3945 3.90359C21.0245 3.58093 21.6057 3.32042 22.1424 3.11307C21.0837 3.03144 19.9161 3.13346 18.668 3.42645C15.2957 4.21789 11.7996 6.28206 8.82379 9.23863C5.84802 12.1952 3.77052 15.6687 2.97388 19.0192C2.6782 20.2629 2.5758 21.426 2.65924 22.4802C3.99571 19.0417 7.15045 14.8226 10.7973 11.1993Z" fill="#1AAD73"/>
<path d="M27.0944 10.5609C25.5479 13.5417 22.9401 16.9281 19.7513 20.0962C19.4031 20.4422 19.046 20.7854 18.6843 21.1245H22.6165C25.1149 18.3839 26.8604 15.2809 27.5747 12.2764C27.8696 11.0363 27.9723 9.87616 27.8901 8.82422C27.6814 9.3574 27.4192 9.93488 27.0944 10.5609Z" fill="#1AAD73"/>
<path d="M22.8561 32.0471C27.7917 32.0471 31.8085 28.0646 31.8229 23.1641H13.8893C13.9036 28.0646 17.9204 32.0471 22.8561 32.0471ZM22.9212 29.015C22.3307 29.015 21.8521 28.5394 21.8521 27.9528C21.8521 27.3661 22.9212 25.9595 22.9212 25.9595C22.9212 25.9595 23.9903 27.3661 23.9903 27.9528C23.9904 28.5395 23.5117 29.015 22.9212 29.015ZM27.5523 26.9504C27.1348 27.3652 26.4579 27.3652 26.0403 26.9504C25.6228 26.5355 25.3777 24.7898 25.3777 24.7898C25.3777 24.7898 27.1348 25.0333 27.5523 25.4482C27.9698 25.863 27.9698 26.5356 27.5523 26.9504ZM18.1185 25.4482C18.536 25.0333 20.2931 24.7898 20.2931 24.7898C20.2931 24.7898 20.048 26.5356 19.6305 26.9504C19.213 27.3652 18.536 27.3652 18.1185 26.9504C17.701 26.5356 17.701 25.863 18.1185 25.4482Z" fill="#1AAD73"/>
<path d="M22.8561 34.1564C16.7498 34.1564 11.7806 29.2277 11.7662 23.1641H9.45318L9.45276 23.2037C9.45276 30.5353 15.4562 36.5 22.8354 36.5C30.2146 36.5 36.218 30.5353 36.218 23.2037V23.1641H33.946C33.9316 29.2277 28.9624 34.1564 22.8561 34.1564Z" fill="#1AAD73"/>
</g>
<path d="M64.6391 28.5H61.7984L60.3977 24.2455H52.661L51.2864 28.5H48.4457L54.5722 9.64909H58.5126L64.6391 28.5ZM56.5097 12.3851L53.4988 21.6796H59.5599L56.5097 12.3851ZM74.1869 28.8927C72.4938 28.8927 70.984 28.5 69.6575 27.7145C68.3396 26.9291 67.3055 25.7989 66.5549 24.324C65.8044 22.8404 65.4291 21.0905 65.4291 19.0745C65.4291 17.076 65.7956 15.3393 66.5287 13.8644C67.2706 12.3807 68.3004 11.2462 69.6182 10.4607C70.9447 9.66654 72.4676 9.26945 74.1869 9.26945C76.3513 9.26945 78.1011 9.77564 79.4364 10.788C80.7804 11.7916 81.7011 13.2229 82.1986 15.0818L79.4233 15.5793C79.0306 14.4185 78.3978 13.5109 77.5251 12.8564C76.6524 12.1931 75.5746 11.8615 74.2916 11.8615C72.9913 11.8615 71.896 12.1625 71.0058 12.7647C70.1156 13.3669 69.448 14.2135 69.0029 15.3044C68.5578 16.3865 68.3353 17.6564 68.3353 19.1138C68.3353 20.5713 68.5622 21.8367 69.016 22.9102C69.4786 23.9836 70.1636 24.8171 71.0713 25.4105C71.9876 25.9953 73.1091 26.2876 74.4356 26.2876C76.0153 26.2876 77.2589 25.8295 78.1666 24.9131C79.0829 23.988 79.6371 22.6527 79.8291 20.9073H76.1636V18.708H82.7353C82.7702 18.996 82.7876 19.3669 82.7876 19.8207C82.7876 21.5836 82.4473 23.1502 81.7666 24.5204C81.0946 25.8905 80.1084 26.964 78.808 27.7407C77.5164 28.5087 75.976 28.8927 74.1869 28.8927ZM99.5481 28.5H96.4194L93.1336 21.732H88.1328V28.5H85.3968V9.64909H93.0157C93.5394 9.64909 94.0237 9.684 94.4688 9.75382C95.4986 9.91091 96.367 10.2644 97.0739 10.8142C97.7808 11.3553 98.3088 12.0447 98.6579 12.8825C99.0157 13.7204 99.1946 14.6542 99.1946 15.684C99.1946 16.9669 98.9197 18.0927 98.3699 19.0615C97.8288 20.0302 97.0346 20.7415 95.9874 21.1953L99.5481 28.5ZM88.1328 12.228V19.14H92.911C93.3648 19.14 93.7619 19.1007 94.1023 19.0222C94.879 18.8302 95.455 18.42 95.8303 17.7916C96.2143 17.1633 96.4063 16.4607 96.4063 15.684C96.4063 14.9073 96.2143 14.2047 95.8303 13.5764C95.455 12.948 94.879 12.5422 94.1023 12.3589C93.7794 12.2716 93.3823 12.228 92.911 12.228H88.1328ZM110.293 28.8927C108.443 28.8927 106.846 28.4825 105.502 27.6622C104.158 26.8418 103.132 25.6942 102.425 24.2193C101.727 22.7356 101.378 21.0207 101.378 19.0745C101.378 17.1284 101.727 15.4178 102.425 13.9429C103.132 12.4593 104.158 11.3073 105.502 10.4869C106.846 9.66655 108.443 9.25636 110.293 9.25636C112.143 9.25636 113.736 9.66655 115.071 10.4869C116.415 11.3073 117.436 12.4593 118.134 13.9429C118.841 15.4178 119.195 17.1284 119.195 19.0745C119.195 21.0207 118.841 22.7356 118.134 24.2193C117.436 25.6942 116.415 26.8418 115.071 27.6622C113.736 28.4825 112.143 28.8927 110.293 28.8927ZM110.371 26.2876C111.663 26.2876 112.75 25.9909 113.631 25.3975C114.521 24.7953 115.185 23.9531 115.621 22.8709C116.066 21.7887 116.289 20.5233 116.289 19.0745C116.289 17.6084 116.062 16.3342 115.608 15.252C115.154 14.1698 114.473 13.3364 113.566 12.7516C112.658 12.1582 111.541 11.8615 110.214 11.8615C108.914 11.8615 107.819 12.1625 106.929 12.7647C106.047 13.3669 105.384 14.2135 104.939 15.3044C104.502 16.3865 104.284 17.6564 104.284 19.1138C104.284 20.5713 104.511 21.8367 104.965 22.9102C105.427 23.9836 106.113 24.8171 107.02 25.4105C107.928 25.9953 109.045 26.2876 110.371 26.2876ZM128.639 28.8927C127.287 28.8927 126.065 28.6615 124.974 28.1989C123.883 27.7276 122.984 27.0556 122.277 26.1829C121.579 25.3015 121.13 24.2716 120.929 23.0935L123.783 22.6615C123.975 23.4207 124.306 24.0753 124.778 24.6251C125.258 25.1749 125.842 25.5938 126.532 25.8818C127.221 26.1698 127.976 26.3138 128.796 26.3138C129.556 26.3138 130.258 26.1916 130.904 25.9473C131.55 25.7029 132.06 25.3538 132.436 24.9C132.82 24.4462 133.012 23.9138 133.012 23.3029C133.012 22.6571 132.802 22.1422 132.383 21.7582C131.973 21.3655 131.393 21.0556 130.642 20.8287L125.812 19.4018C124.616 19.0527 123.626 18.5204 122.84 17.8047C122.055 17.0891 121.662 16.0462 121.662 14.676C121.662 13.5502 121.954 12.5815 122.539 11.7698C123.124 10.9495 123.922 10.3298 124.935 9.91091C125.956 9.48327 127.103 9.26945 128.378 9.26945C129.643 9.26945 130.782 9.48764 131.794 9.924C132.815 10.3604 133.662 10.9931 134.334 11.8222C135.015 12.6513 135.482 13.6418 135.735 14.7938L132.802 15.2913C132.663 14.5844 132.375 13.9735 131.938 13.4585C131.511 12.9349 130.978 12.5378 130.341 12.2673C129.704 11.9967 129.015 11.8615 128.273 11.8615C127.592 11.8615 126.968 11.9749 126.401 12.2018C125.834 12.4287 125.384 12.7473 125.052 13.1575C124.721 13.5676 124.555 14.0302 124.555 14.5451C124.555 15.2433 124.821 15.7756 125.354 16.1422C125.895 16.5 126.606 16.8011 127.487 17.0455L130.97 18.0273C131.825 18.2629 132.588 18.5422 133.26 18.8651C133.941 19.188 134.543 19.6985 135.067 20.3967C135.599 21.0862 135.866 21.9938 135.866 23.1196C135.866 24.3415 135.538 25.3887 134.884 26.2615C134.238 27.1255 133.365 27.78 132.266 28.2251C131.175 28.6702 129.966 28.8927 128.639 28.8927ZM146.091 28.5H143.355V12.228H137.084V9.64909H152.362V12.228H146.091V28.5ZM162.324 28.8927C160.474 28.8927 158.877 28.4825 157.533 27.6622C156.189 26.8418 155.163 25.6942 154.456 24.2193C153.758 22.7356 153.409 21.0207 153.409 19.0745C153.409 17.1284 153.758 15.4178 154.456 13.9429C155.163 12.4593 156.189 11.3073 157.533 10.4869C158.877 9.66655 160.474 9.25636 162.324 9.25636C164.174 9.25636 165.767 9.66655 167.102 10.4869C168.446 11.3073 169.467 12.4593 170.166 13.9429C170.872 15.4178 171.226 17.1284 171.226 19.0745C171.226 21.0207 170.872 22.7356 170.166 24.2193C169.467 25.6942 168.446 26.8418 167.102 27.6622C165.767 28.4825 164.174 28.8927 162.324 28.8927ZM162.403 26.2876C163.694 26.2876 164.781 25.9909 165.662 25.3975C166.552 24.7953 167.216 23.9531 167.652 22.8709C168.097 21.7887 168.32 20.5233 168.32 19.0745C168.32 17.6084 168.093 16.3342 167.639 15.252C167.185 14.1698 166.504 13.3364 165.597 12.7516C164.689 12.1582 163.572 11.8615 162.246 11.8615C160.945 11.8615 159.85 12.1625 158.96 12.7647C158.078 13.3669 157.415 14.2135 156.97 15.3044C156.534 16.3865 156.315 17.6564 156.315 19.1138C156.315 20.5713 156.542 21.8367 156.996 22.9102C157.459 23.9836 158.144 24.8171 159.051 25.4105C159.959 25.9953 161.076 26.2876 162.403 26.2876ZM181.705 28.8927C179.855 28.8927 178.258 28.4825 176.914 27.6622C175.57 26.8418 174.544 25.6942 173.837 24.2193C173.139 22.7356 172.79 21.0207 172.79 19.0745C172.79 17.1284 173.139 15.4178 173.837 13.9429C174.544 12.4593 175.57 11.3073 176.914 10.4869C178.258 9.66655 179.855 9.25636 181.705 9.25636C183.127 9.25636 184.402 9.50509 185.527 10.0025C186.662 10.4913 187.609 11.1938 188.368 12.1102C189.136 13.0178 189.708 14.0956 190.083 15.3436L187.308 16.0898C186.924 14.7458 186.26 13.7073 185.318 12.9742C184.375 12.2324 183.171 11.8615 181.705 11.8615C180.387 11.8615 179.279 12.1625 178.38 12.7647C177.481 13.3669 176.804 14.2135 176.351 15.3044C175.906 16.3953 175.683 17.6782 175.683 19.1531C175.683 20.5931 175.91 21.8498 176.364 22.9233C176.818 23.988 177.494 24.8171 178.393 25.4105C179.3 25.9953 180.404 26.2876 181.705 26.2876C183.171 26.2876 184.375 25.9211 185.318 25.188C186.26 24.4462 186.924 23.4033 187.308 22.0593L190.083 22.8055C189.708 24.0535 189.136 25.1356 188.368 26.052C187.609 26.9596 186.662 27.6622 185.527 28.1596C184.402 28.6484 183.127 28.8927 181.705 28.8927ZM195.698 28.5H192.962V9.64909H195.698V18.4462L203.592 9.64909H206.996L198.657 18.852L207.611 28.5H204.103L195.698 19.4935V28.5Z" fill="#1AAD73"/>
<defs>
<clipPath id="clip0_912_2062">
<rect width="36.2338" height="36" fill="white" transform="translate(0 0.5)"/>
</clipPath>
</defs>
</svg>
