<svg width="24" height="25" viewBox="0 0 24 25" fill="none" xmlns="http://www.w3.org/2000/svg">
<path d="M3.50006 15.6C3.73745 15.4821 4.01193 15.4633 4.26319 15.5477C4.51445 15.6321 4.72194 15.8127 4.84006 16.05C5.47299 17.3282 6.43615 18.414 7.62977 19.1948C8.8234 19.9756 10.2041 20.4231 11.6288 20.491C13.0535 20.5588 14.4705 20.2445 15.7329 19.5806C16.9953 18.9167 18.0572 17.9274 18.8087 16.7151C19.5603 15.5028 19.974 14.1116 20.0071 12.6857C20.0402 11.2597 19.6915 9.85088 18.997 8.60502C18.3026 7.35915 17.2877 6.32161 16.0575 5.59985C14.8272 4.87809 13.4264 4.49837 12.0001 4.50001C10.5089 4.49355 9.04621 4.90764 7.77975 5.69476C6.51329 6.48188 5.49441 7.61012 4.84006 8.95001C4.72071 9.1887 4.51143 9.37021 4.25825 9.4546C4.00508 9.53899 3.72875 9.51936 3.49006 9.40001C3.25136 9.28066 3.06985 9.07138 2.98546 8.81821C2.90107 8.56503 2.92071 8.2887 3.04006 8.05001C4.04345 6.03075 5.69982 4.40987 7.74033 3.45044C9.78084 2.49101 12.0857 2.24935 14.2809 2.76469C16.476 3.28002 18.4325 4.5221 19.8329 6.28933C21.2333 8.05656 21.9954 10.2452 21.9954 12.5C21.9954 14.7548 21.2333 16.9435 19.8329 18.7107C18.4325 20.4779 16.476 21.72 14.2809 22.2353C12.0857 22.7507 9.78084 22.509 7.74033 21.5496C5.69982 20.5901 4.04345 18.9693 3.04006 16.95C2.98046 16.8314 2.94509 16.7021 2.93599 16.5696C2.9269 16.4372 2.94427 16.3043 2.98708 16.1786C3.0299 16.0529 3.09731 15.937 3.18538 15.8377C3.27346 15.7384 3.38043 15.6576 3.50006 15.6ZM3.00006 11.5H12.5901L10.2901 9.21001C10.1968 9.11677 10.1229 9.00608 10.0724 8.88426C10.0219 8.76244 9.99596 8.63187 9.99596 8.50001C9.99596 8.36815 10.0219 8.23758 10.0724 8.11576C10.1229 7.99394 10.1968 7.88325 10.2901 7.79001C10.3833 7.69677 10.494 7.62281 10.6158 7.57235C10.7376 7.52189 10.8682 7.49592 11.0001 7.49592C11.1319 7.49592 11.2625 7.52189 11.3843 7.57235C11.5061 7.62281 11.6168 7.69677 11.7101 7.79001L15.7101 11.79C15.8011 11.8851 15.8725 11.9973 15.9201 12.12C16.0201 12.3635 16.0201 12.6365 15.9201 12.88C15.8725 13.0028 15.8011 13.1149 15.7101 13.21L11.7101 17.21C11.6171 17.3037 11.5065 17.3781 11.3846 17.4289C11.2628 17.4797 11.1321 17.5058 11.0001 17.5058C10.868 17.5058 10.7373 17.4797 10.6155 17.4289C10.4936 17.3781 10.383 17.3037 10.2901 17.21C10.1963 17.117 10.1219 17.0064 10.0712 16.8846C10.0204 16.7627 9.99426 16.632 9.99426 16.5C9.99426 16.368 10.0204 16.2373 10.0712 16.1154C10.1219 15.9936 10.1963 15.883 10.2901 15.79L12.5901 13.5H3.00006C2.73484 13.5 2.48048 13.3947 2.29295 13.2071C2.10541 13.0196 2.00006 12.7652 2.00006 12.5C2.00006 12.2348 2.10541 11.9804 2.29295 11.7929C2.48048 11.6054 2.73484 11.5 3.00006 11.5Z" fill="white"/>
</svg>
